<?xml version="1.0" encoding="UTF-8"?>
<svg width="667px" height="229px" viewBox="0 0 667 229" version="1.1" xmlns="http://www.w3.org/2000/svg" xmlns:xlink="http://www.w3.org/1999/xlink">
    <!-- Generator: Sketch 52.5 (67469) - http://www.bohemiancoding.com/sketch -->
    <title>logo</title>
    <desc>Created with Sketch.</desc>
    <g id="Page-1" stroke="none" stroke-width="1" fill="none" fill-rule="evenodd">
        <g id="logo">
            <g id="Group" opacity="0.5" fill="#8FBEFF">
                <path d="M52.0826087,136.279624 C34.7668323,126.590215 17.4510559,116.888495 0.135279503,107.199086 C0.0860869565,83.2156452 0.0491925466,59.2322043 0,35.2364516 C20.4395031,23.4909677 40.8790062,11.7454839 61.3185093,0 C82.4467081,11.9055376 103.562609,23.8233871 124.690807,35.7289247 C124.690807,59.5523118 124.690807,83.3756989 124.690807,107.199086 C112.380373,114.290699 100.069938,121.382312 87.7595031,128.473925 C87.8086957,147.150968 87.8578882,165.828011 87.8947826,184.505054 C103.673292,193.505 119.464099,202.492634 135.242609,211.492581 C151.021118,202.615753 166.811925,193.751237 182.590435,184.874409 C182.676522,165.951129 182.762609,147.015538 182.848696,128.092258 C170.636646,121.012957 158.412298,113.921344 146.200248,106.842043 C146.200248,101.831129 146.200248,96.8202151 146.200248,91.7969892 C163.257764,101.117043 180.302981,110.449409 197.360497,119.769462 C197.299006,144.27 197.225217,168.770538 197.163727,193.258763 C176.650435,204.930376 156.124845,216.589677 135.611553,228.26129 C114.852298,216.466559 94.0930435,204.68414 73.3337888,192.889409 C73.2968944,168.733602 73.26,144.565484 73.2231056,120.409677 C85.3982609,113.08414 97.5734161,105.770914 109.76087,98.4453763 C109.76087,80.1007527 109.76087,61.7438172 109.76087,43.3991935 C93.8593789,34.276129 77.9578882,25.1653763 62.0440994,16.0423118 C46.3885714,24.7960215 30.7207453,33.5497312 15.0652174,42.291129 C15.0529193,61.2390323 15.028323,80.1992473 15.0160248,99.1471505 C27.3756522,106.312634 39.7352795,113.478118 52.0826087,120.643602 C52.0826087,125.863817 52.0826087,131.07172 52.0826087,136.279624 Z" id="Path"></path>
                <polygon id="Path" points="33.6722981 55.6371505 33.6722981 89.4084946 62.8803727 106.288011 92.1007453 89.4084946 92.1007453 55.6371505 62.8803727 38.7576344"></polygon>
                <polygon id="Path" points="105.923851 139.259086 105.923851 173.03043 135.144224 189.909946 164.352298 173.03043 164.352298 139.259086 135.144224 122.367258"></polygon>
            </g>
            <path d="M60.68,123.92 L65.96,123.92 L65.96,88.08 L60.68,88.08 L60.68,78 L85.24,78 C87.90668,78 90.2666564,78.3733296 92.32,79.12 C94.3733436,79.8666704 96.1066596,80.8799936 97.52,82.16 C98.9333404,83.4400064 99.9999964,84.9733244 100.72,86.76 C101.440004,88.5466756 101.8,90.4799896 101.8,92.56 L101.8,93.52 C101.8,96.720016 100.906676,99.2799904 99.12,101.2 C97.3333244,103.12001 95.0800136,104.45333 92.36,105.2 L92.36,106.64 C95.0800136,107.38667 97.3333244,108.733324 99.12,110.68 C100.906676,112.626676 101.8,115.199984 101.8,118.4 L101.8,119.36 C101.8,121.44001 101.440004,123.373324 100.72,125.16 C99.9999964,126.946676 98.9333404,128.493327 97.52,129.8 C96.1066596,131.106673 94.3733436,132.13333 92.32,132.88 C90.2666564,133.62667 87.90668,134 85.24,134 L60.68,134 L60.68,123.92 Z M76.52,123.92 L84.2,123.92 C86.4400112,123.92 88.2533264,123.440005 89.64,122.48 C91.0266736,121.519995 91.72,119.920011 91.72,117.68 L91.72,117.2 C91.72,114.959989 91.0266736,113.360005 89.64,112.4 C88.2533264,111.439995 86.4400112,110.96 84.2,110.96 L76.52,110.96 L76.52,123.92 Z M76.52,100.88 L84.2,100.88 C86.4400112,100.88 88.2533264,100.413338 89.64,99.48 C91.0266736,98.546662 91.72,96.9600112 91.72,94.72 L91.72,94.24 C91.72,91.9999888 91.0266736,90.413338 89.64,89.48 C88.2533264,88.546662 86.4400112,88.08 84.2,88.08 L76.52,88.08 L76.52,100.88 Z M141.28,94.32 L151.36,94.32 L151.36,134 L141.28,134 L141.28,128.24 L139.84,128.24 C138.079991,132.82669 134.293362,135.12 128.48,135.12 C126.506657,135.12 124.666675,134.800003 122.96,134.16 C121.253325,133.519997 119.760006,132.53334 118.48,131.2 C117.199994,129.86666 116.200004,128.20001 115.48,126.2 C114.759996,124.19999 114.4,121.840014 114.4,119.12 L114.4,94.32 L124.48,94.32 L124.48,117.04 C124.48,119.866681 125.14666,122.066659 126.48,123.64 C127.81334,125.213341 129.81332,126 132.48,126 C135.520015,126 137.74666,125.026676 139.16,123.08 C140.57334,121.133324 141.28,118.480017 141.28,115.12 L141.28,94.32 Z M166.28,124.4 L179.72,124.4 L179.72,103.92 L167.24,103.92 L167.24,94.32 L189.8,94.32 L189.8,124.4 L201.32,124.4 L201.32,134 L166.28,134 L166.28,124.4 Z M192.28,82.56 C192.28,83.626672 192.080002,84.626662 191.68,85.56 C191.279998,86.493338 190.733337,87.29333 190.04,87.96 C189.346663,88.62667 188.533338,89.159998 187.6,89.56 C186.666662,89.960002 185.693338,90.16 184.68,90.16 C183.613328,90.16 182.626671,89.960002 181.72,89.56 C180.813329,89.159998 180.013337,88.62667 179.32,87.96 C178.626663,87.29333 178.080002,86.493338 177.68,85.56 C177.279998,84.626662 177.08,83.626672 177.08,82.56 C177.08,81.493328 177.279998,80.493338 177.68,79.56 C178.080002,78.626662 178.626663,77.82667 179.32,77.16 C180.013337,76.49333 180.813329,75.960002 181.72,75.56 C182.626671,75.159998 183.613328,74.96 184.68,74.96 C185.693338,74.96 186.666662,75.159998 187.6,75.56 C188.533338,75.960002 189.346663,76.49333 190.04,77.16 C190.733337,77.82667 191.279998,78.626662 191.68,79.56 C192.080002,80.493338 192.28,81.493328 192.28,82.56 Z M216.48,124.4 L230.4,124.4 L230.4,87.6 L216.96,87.6 L216.96,78 L240.48,78 L240.48,124.4 L253.44,124.4 L253.44,134 L216.48,134 L216.48,124.4 Z M296.36,128.24 L294.92,128.24 C294.493331,129.146671 293.973337,130.013329 293.36,130.84 C292.746664,131.666671 291.946672,132.399997 290.96,133.04 C289.973329,133.680003 288.800007,134.186665 287.44,134.56 C286.079993,134.933335 284.44001,135.12 282.52,135.12 C280.066655,135.12 277.786677,134.680004 275.68,133.8 C273.573323,132.919996 271.733341,131.613342 270.16,129.88 C268.586659,128.146658 267.360005,126.026679 266.48,123.52 C265.599996,121.013321 265.16,118.13335 265.16,114.88 L265.16,113.44 C265.16,110.239984 265.626662,107.386679 266.56,104.88 C267.493338,102.373321 268.773325,100.253342 270.4,98.52 C272.026675,96.786658 273.919989,95.4666712 276.08,94.56 C278.240011,93.6533288 280.519988,93.2 282.92,93.2 C286.120016,93.2 288.653324,93.799994 290.52,95 C292.386676,96.200006 293.853328,97.8933224 294.92,100.08 L296.36,100.08 L296.36,78 L306.44,78 L306.44,134 L296.36,134 L296.36,128.24 Z M285.8,125.52 C288.946683,125.52 291.493324,124.52001 293.44,122.52 C295.386677,120.51999 296.36,117.89335 296.36,114.64 L296.36,113.68 C296.36,110.42665 295.386677,107.80001 293.44,105.8 C291.493324,103.79999 288.946683,102.8 285.8,102.8 C282.653318,102.8 280.106677,103.773324 278.16,105.72 C276.213324,107.666676 275.24,110.319983 275.24,113.68 L275.24,114.64 C275.24,118.000017 276.213324,120.653324 278.16,122.6 C280.106677,124.546676 282.653318,125.52 285.8,125.52 Z M333.6,105.68 L357.6,105.68 L357.6,134 L348,134 L348,127.76 L346.56,127.76 C345.919997,129.84001 344.693343,131.58666 342.88,133 C341.066658,134.41334 338.346685,135.12 334.72,135.12 C332.159987,135.12 329.760011,134.640005 327.52,133.68 C325.279989,132.719995 323.333342,131.293343 321.68,129.4 C320.026659,127.506657 318.720005,125.160014 317.76,122.36 C316.799995,119.559986 316.32,116.293352 316.32,112.56 L316.32,99.44 C316.32,95.8133152 316.839995,92.600014 317.88,89.8 C318.920005,86.999986 320.359991,84.6400096 322.2,82.72 C324.040009,80.7999904 326.239987,79.3466716 328.8,78.36 C331.360013,77.3733284 334.186651,76.88 337.28,76.88 C340.480016,76.88 343.333321,77.3999948 345.84,78.44 C348.346679,79.4800052 350.479991,80.9199908 352.24,82.76 C354.000009,84.6000092 355.333329,86.7599876 356.24,89.24 C357.146671,91.7200124 357.6,94.3733192 357.6,97.2 L357.6,98.16 L347.04,98.16 L347.04,97.2 C347.04,93.8399832 346.173342,91.293342 344.44,89.56 C342.706658,87.826658 340.266683,86.96 337.12,86.96 C334.133319,86.96 331.68001,87.95999 329.76,89.96 C327.839991,91.96001 326.88,95.3866424 326.88,100.24 L326.88,112.08 C326.88,120.720043 330.399965,125.04 337.44,125.04 C340.586683,125.04 342.973325,124.200008 344.6,122.52 C346.226675,120.839992 347.04,118.586681 347.04,115.76 L333.6,115.76 L333.6,105.68 Z M368.28,78 L408.6,78 L408.6,88.08 L393.72,88.08 L393.72,134 L383.16,134 L383.16,88.08 L368.28,88.08 L368.28,78 Z M419.44,94.32 L436.24,94.32 L436.24,100.08 L437.68,100.08 C438.426671,97.8933224 439.693325,96.200006 441.48,95 C443.266676,93.799994 445.413321,93.2 447.92,93.2 C451.866687,93.2 455.039988,94.4399876 457.44,96.92 C459.840012,99.4000124 461.04,103.173308 461.04,108.24 L461.04,110 L450.64,110.96 L450.64,109.84 C450.64,107.653322 450.080006,105.906673 448.96,104.6 C447.839995,103.293327 446.160012,102.64 443.92,102.64 C441.679989,102.64 439.920007,103.413326 438.64,104.96 C437.359994,106.506674 436.72,108.719986 436.72,111.6 L436.72,124.4 L445.84,124.4 L445.84,134 L418.48,134 L418.48,124.4 L426.64,124.4 L426.64,103.92 L419.44,103.92 L419.44,94.32 Z M473.24,124.4 L486.68,124.4 L486.68,103.92 L474.2,103.92 L474.2,94.32 L496.76,94.32 L496.76,124.4 L508.28,124.4 L508.28,134 L473.24,134 L473.24,124.4 Z M499.24,82.56 C499.24,83.626672 499.040002,84.626662 498.64,85.56 C498.239998,86.493338 497.693337,87.29333 497,87.96 C496.306664,88.62667 495.493338,89.159998 494.56,89.56 C493.626662,89.960002 492.653339,90.16 491.64,90.16 C490.573328,90.16 489.586672,89.960002 488.68,89.56 C487.773329,89.159998 486.973337,88.62667 486.28,87.96 C485.586664,87.29333 485.040002,86.493338 484.64,85.56 C484.239998,84.626662 484.04,83.626672 484.04,82.56 C484.04,81.493328 484.239998,80.493338 484.64,79.56 C485.040002,78.626662 485.586664,77.82667 486.28,77.16 C486.973337,76.49333 487.773329,75.960002 488.68,75.56 C489.586672,75.159998 490.573328,74.96 491.64,74.96 C492.653339,74.96 493.626662,75.159998 494.56,75.56 C495.493338,75.960002 496.306664,76.49333 497,77.16 C497.693337,77.82667 498.239998,78.626662 498.64,79.56 C499.040002,80.493338 499.24,81.493328 499.24,82.56 Z M520.88,94.32 L531.76,94.32 L541.12,129.2 L542.56,129.2 L551.92,94.32 L562.8,94.32 L551.44,134 L532.24,134 L520.88,94.32 Z M575.56,124.4 L589,124.4 L589,103.92 L576.52,103.92 L576.52,94.32 L599.08,94.32 L599.08,124.4 L610.6,124.4 L610.6,134 L575.56,134 L575.56,124.4 Z M601.56,82.56 C601.56,83.626672 601.360002,84.626662 600.96,85.56 C600.559998,86.493338 600.013337,87.29333 599.32,87.96 C598.626664,88.62667 597.813338,89.159998 596.88,89.56 C595.946662,89.960002 594.973339,90.16 593.96,90.16 C592.893328,90.16 591.906672,89.960002 591,89.56 C590.093329,89.159998 589.293337,88.62667 588.6,87.96 C587.906664,87.29333 587.360002,86.493338 586.96,85.56 C586.559998,84.626662 586.36,83.626672 586.36,82.56 C586.36,81.493328 586.559998,80.493338 586.96,79.56 C587.360002,78.626662 587.906664,77.82667 588.6,77.16 C589.293337,76.49333 590.093329,75.960002 591,75.56 C591.906672,75.159998 592.893328,74.96 593.96,74.96 C594.973339,74.96 595.946662,75.159998 596.88,75.56 C597.813338,75.960002 598.626664,76.49333 599.32,77.16 C600.013337,77.82667 600.559998,78.626662 600.96,79.56 C601.360002,80.493338 601.56,81.493328 601.56,82.56 Z M651.680001,128.24 C650.613329,130.746679 649.12001,132.519995 647.200001,133.56 C645.279991,134.600005 643.040013,135.12 640.480001,135.12 C638.079989,135.12 635.826678,134.666671 633.720001,133.76 C631.613323,132.853329 629.760009,131.520009 628.160001,129.76 C626.559993,127.999991 625.293339,125.866679 624.360001,123.36 C623.426663,120.853321 622.960001,118.000016 622.960001,114.8 L622.960001,113.52 C622.960001,110.373318 623.413329,107.546679 624.320001,105.04 C625.226672,102.533321 626.453326,100.400009 628.000001,98.64 C629.546675,96.8799912 631.346657,95.533338 633.400001,94.6 C635.453344,93.666662 637.653322,93.2 640.000001,93.2 C642.826681,93.2 645.106659,93.6799952 646.840001,94.64 C648.573343,95.6000048 649.946662,97.0933232 650.960001,99.12 L652.400001,99.12 L652.400001,94.32 L662.480001,94.32 L662.480001,122 C662.480001,123.600008 663.199993,124.4 664.640001,124.4 L666.160001,124.4 L666.160001,134 L659.280001,134 C657.466658,134 655.986673,133.466672 654.840001,132.4 C653.693328,131.333328 653.120001,129.946675 653.120001,128.24 L651.680001,128.24 Z M642.720001,125.52 C645.653349,125.52 647.999992,124.546676 649.760001,122.6 C651.520009,120.653324 652.400001,118.000017 652.400001,114.64 L652.400001,113.68 C652.400001,110.319983 651.520009,107.666676 649.760001,105.72 C647.999992,103.773324 645.653349,102.8 642.720001,102.8 C639.786653,102.8 637.440009,103.773324 635.680001,105.72 C633.919992,107.666676 633.040001,110.319983 633.040001,113.68 L633.040001,114.64 C633.040001,118.000017 633.919992,120.653324 635.680001,122.6 C637.440009,124.546676 639.786653,125.52 642.720001,125.52 Z" id="BuildGTrivia" fill="#036BFF"></path>
        </g>
    </g>
</svg>
