<?xml version="1.0" encoding="utf-8"?>
<!-- Generator: Adobe Illustrator 23.0.1, SVG Export Plug-In . SVG Version: 6.00 Build 0)  -->
<svg version="1.1" id="Layer_1" xmlns="http://www.w3.org/2000/svg" xmlns:xlink="http://www.w3.org/1999/xlink" x="0px" y="0px"
	 viewBox="0 0 2500 185.39" style="enable-background:new 0 0 524.34 185.39;" xml:space="preserve">

<style type="text/css">
	.st0{opacity:0.5;}
	.st1{fill:#8FBEFF;}
	.st2{fill:#036BFF;}
</style>
<g>
	<g class="st0">
		<path class="st1" d="M42.35,110.69c-14.08-7.87-28.16-15.75-42.24-23.62C0.07,67.59,0.04,48.11,0,28.62
			C16.62,19.08,33.24,9.54,49.86,0c17.18,9.67,34.35,19.35,51.53,29.02c0,19.35,0,38.7,0,58.05c-10.01,5.76-20.02,11.52-30.03,17.28
			c0.04,15.17,0.08,30.34,0.11,45.51c12.83,7.31,25.67,14.61,38.5,21.92c12.83-7.21,25.67-14.41,38.5-21.62
			c0.07-15.37,0.14-30.75,0.21-46.12c-9.93-5.75-19.87-11.51-29.8-17.26c0-4.07,0-8.14,0-12.22c13.87,7.57,27.73,15.15,41.6,22.72
			c-0.05,19.9-0.11,39.8-0.16,59.69c-16.68,9.48-33.37,18.95-50.05,28.43c-16.88-9.58-33.76-19.15-50.64-28.73
			c-0.03-19.62-0.06-39.25-0.09-58.87c9.9-5.95,19.8-11.89,29.71-17.84c0-14.9,0-29.81,0-44.71c-12.93-7.41-25.86-14.81-38.8-22.22
			c-12.73,7.11-25.47,14.22-38.2,21.32c-0.01,15.39-0.03,30.79-0.04,46.18c10.05,5.82,20.1,11.64,30.14,17.46
			C42.35,102.23,42.35,106.46,42.35,110.69z"/>
		<polygon class="st1" points="27.38,45.19 27.38,72.62 51.13,86.33 74.89,72.62 74.89,45.19 51.13,31.48 		"/>
		<polygon class="st1" points="86.13,113.11 86.13,140.54 109.89,154.25 133.64,140.54 133.64,113.11 109.89,99.39 		"/>
	</g>

	<text style="fill: red;">BuildGTrivia</text>
</g>
</svg>
